<?xml version="1.0" standalone="no"?>
<!DOCTYPE svg PUBLIC "-//W3C//DTD SVG 20010904//EN"
 "http://www.w3.org/TR/2001/REC-SVG-20010904/DTD/svg10.dtd">
<svg version="1.0" xmlns="http://www.w3.org/2000/svg"
 width="700.000000pt" height="700.000000pt" viewBox="0 0 700.000000 700.000000"
 preserveAspectRatio="xMidYMid meet">
<metadata>
Created by potrace 1.14, written by Peter Selinger 2001-2017
</metadata>
<g transform="translate(0.000000,700.000000) scale(0.100000,-0.100000)"
fill="#000000" stroke="none">
<path d="M700 6800 c-197 -51 -362 -185 -451 -365 -81 -166 -74 123 -74 -2935
0 -2586 1 -2729 18 -2795 63 -247 255 -442 507 -512 62 -17 187 -18 2795 -18
2585 0 2733 1 2795 18 207 56 372 190 460 372 77 161 71 -101 68 2960 l-3
2740 -28 80 c-74 209 -229 365 -436 439 l-86 31 -2745 2 c-2688 2 -2747 2
-2820 -17z m1565 -1649 c307 -69 500 -227 561 -462 25 -92 22 -270 -5 -372
-52 -200 -185 -344 -412 -451 -52 -24 -127 -54 -167 -67 -40 -13 -71 -26 -70
-29 13 -30 718 -970 767 -1022 111 -119 222 -179 373 -200 l78 -11 0 -64 0
-63 -370 0 -370 0 -153 233 c-225 342 -565 818 -700 980 l-39 48 -142 -3 -141
-3 0 -480 c0 -534 -1 -527 68 -579 37 -29 122 -50 245 -62 l72 -7 0 -63 0 -64
-585 0 -585 0 0 64 0 63 105 12 c161 18 208 40 244 114 21 43 21 49 21 1128
l0 1085 -22 44 c-29 56 -81 83 -203 105 -163 29 -145 17 -145 91 l0 65 738 -4
c721 -3 739 -4 837 -26z m2385 -36 l0 -64 -37 -6 c-205 -34 -267 -59 -298
-120 -19 -38 -20 -63 -23 -517 l-3 -478 656 0 656 0 -3 468 -3 468 -28 43
c-35 53 -113 92 -244 122 l-93 21 0 64 0 64 575 0 575 0 0 -64 c0 -68 -6 -76
-69 -76 -13 0 -65 -10 -115 -21 -115 -27 -157 -63 -175 -149 -8 -40 -11 -347
-9 -1105 3 -973 4 -1052 20 -1082 40 -72 118 -111 271 -135 l77 -12 0 -63 0
-63 -575 0 -575 0 0 64 0 63 110 11 c156 16 206 40 241 117 17 37 19 77 19
573 l0 532 -655 0 -656 0 3 -532 c3 -517 4 -534 23 -568 33 -56 98 -89 224
-113 l111 -22 0 -62 0 -63 -570 0 -570 0 0 64 0 64 73 7 c178 16 232 38 270
109 l22 41 0 1070 c0 589 -3 1082 -8 1098 -12 42 -72 102 -125 125 -42 18
-109 37 -204 57 -27 5 -28 8 -28 70 l0 65 570 0 570 0 0 -65z"/>
<path d="M1478 5024 c-5 -4 -8 -274 -8 -601 l0 -593 178 0 c206 0 278 13 390
66 101 48 214 159 260 254 90 186 94 436 11 606 -36 73 -113 157 -180 196
-101 59 -164 71 -414 76 -126 2 -233 0 -237 -4z"/>
</g>
</svg>
